<svg id="eHtyZF3vEY61" xmlns="http://www.w3.org/2000/svg" xmlns:xlink="http://www.w3.org/1999/xlink" viewBox="0 0 15 15" shape-rendering="geometricPrecision" text-rendering="geometricPrecision"><g transform="matrix(.054453 0 0 0.054453-.667951-.918231)" mask="url(#eHtyZF3vEY66)"><g transform="translate(0 0.000001)"><ellipse rx="36.2899" ry="36.2899" transform="matrix(3.15474 0 0 3.19017 150 144.228)" fill="#efb6ff" stroke-width="0"/><rect width="239.489" height="175.037" rx="0" ry="0" transform="matrix(.956075 0 0 0.779878 35.5151 144.228)" fill="#efb6ff" stroke-width="0"/></g><mask id="eHtyZF3vEY66" mask-type="luminance" x="-150%" y="-150%" height="400%" width="400%"><g transform="translate(-19.5633-4.65794)"><rect width="67.65" height="195.397" rx="0" ry="0" transform="matrix(1.87154 0 0 1.64219 11.2369 6.51199)" fill="#d2dbed" stroke-width="0"/><rect width="67.65" height="195.397" rx="0" ry="0" transform="matrix(1.87154 0 0 1.64219 201.281-4.66706)" fill="#d2dbed" stroke-width="0"/><rect width="67.65" height="195.397" rx="0" ry="0" transform="matrix(1.87154 0 0 1.64219 102.532 204.778)" fill="#d2dbed" stroke-width="0"/></g></mask></g></svg>
