<svg id="e7kWsmojLYI1" xmlns="http://www.w3.org/2000/svg" xmlns:xlink="http://www.w3.org/1999/xlink" viewBox="0 0 15 15" shape-rendering="geometricPrecision" text-rendering="geometricPrecision"><g transform="matrix(.057596 0 0 0.057596-1.139397-1.309017)"><polygon points="0,-37.122466 35.305563,-11.471473 21.820038,30.032706 -21.820038,30.032706 -35.305563,-11.471473 0,-37.122466" transform="matrix(2.58223 0 0 2.58223 150 162.099)" fill="none" stroke="#efb6ff" stroke-width="10"/><ellipse rx="41.7916" ry="41.7916" transform="matrix(.83075 0 0 0.83075 150 66.2399)" fill="#efb6ff" stroke-width="0"/><ellipse rx="41.7916" ry="41.7916" transform="matrix(.83075 0 0 0.83075 58.8329 130.037)" fill="#efb6ff" stroke-width="0"/><ellipse rx="41.7916" ry="41.7916" transform="matrix(.83075 0 0 0.83075 93.5513 239.65)" fill="#efb6ff" stroke-width="0"/><ellipse rx="41.7916" ry="41.7916" transform="matrix(.83075 0 0 0.83075 206.449 239.65)" fill="#efb6ff" stroke-width="0"/><ellipse rx="41.7916" ry="41.7916" transform="matrix(.83075 0 0 0.83075 241.167 130.037)" fill="#efb6ff" stroke-width="0"/></g></svg>
